<svg width="1598" height="707" viewBox="0 0 1598 707" fill="none" xmlns="http://www.w3.org/2000/svg">
<path d="M1.96517 707.067C1.96517 660.905 1.96517 617.74 1.96517 572.776C9.7207 572.177 15.6864 571.577 22.2488 571.577C269.233 570.978 515.62 570.978 762.603 570.378C965.44 569.779 1168.28 568.58 1371.11 567.98C1382.45 567.98 1393.78 567.98 1404.52 564.983C1440.91 554.791 1462.39 520.619 1457.62 482.25C1453.44 448.078 1423.02 420.5 1386.62 419.301C1351.43 418.102 1316.83 418.701 1281.63 419.301C1123.53 419.9 965.44 419.9 807.347 420.5C547.238 421.099 287.13 422.299 27.0215 423.498C18.6694 423.498 10.9138 423.498 0.771939 423.498C0.771939 379.134 0.771939 335.369 0.771939 289.207C7.33431 288.607 14.4933 288.008 21.6522 288.008C268.636 287.408 515.023 286.809 762.007 286.209C966.037 285.61 1170.66 285.01 1374.69 284.411C1413.47 284.411 1442.7 264.627 1452.25 232.253C1466.57 184.891 1433.16 137.53 1384.24 135.731C1348.44 134.532 1312.65 135.132 1276.85 135.132C973.196 135.731 670.134 136.331 366.475 137.53C253.125 138.129 139.775 138.729 26.4249 138.729C18.0727 138.729 10.3173 138.729 0.175415 138.729C0.175415 93.166 0.175415 50.001 0.175415 4.43805C7.93094 3.83853 16.283 3.23902 24.0386 3.23902C241.193 2.63951 457.751 2.03999 674.906 1.44048C909.362 0.840968 1144.41 0.241455 1379.47 0.241455C1476.71 0.241455 1558.44 60.7923 1584.69 153.117C1602.59 216.066 1591.85 274.818 1554.86 328.775C1550.09 335.369 1545.31 341.964 1539.35 349.757C1544.12 355.753 1548.89 362.347 1553.67 368.942C1601.39 435.488 1610.94 506.83 1576.34 581.169C1541.74 655.509 1481.48 697.475 1399.75 703.47C1350.23 707.067 1300.12 705.269 1250.01 705.269C843.738 706.468 437.468 707.667 31.1975 708.266C21.6522 707.067 12.7036 707.067 1.96517 707.067Z" fill="url(#paint0_linear_6_896)"/>
<defs>
<linearGradient id="paint0_linear_6_896" x1="1697.23" y1="354.254" x2="973.922" y2="354.254" gradientUnits="userSpaceOnUse">
<stop stop-color="white"/>
<stop offset="1" stop-color="white" stop-opacity="0"/>
</linearGradient>
</defs>
</svg>
