<svg width="299" height="22" viewBox="0 0 299 22" fill="none" xmlns="http://www.w3.org/2000/svg">
<path d="M0 4.59422C0 3.24957 0 1.97962 0 0.597617C0.38422 0.560266 0.76844 0.522915 1.15266 0.522915C15.1767 0.485563 29.2007 0.485563 43.2247 0.448212C45.7222 0.448212 47.7585 1.30729 49.1033 3.32427C50.6018 5.49066 50.6018 7.76909 49.257 10.0475C49.0649 10.3837 48.8344 10.6825 48.5654 11.056C48.6807 11.2428 48.8344 11.4669 48.988 11.691C50.4865 13.7453 50.7555 15.9491 49.6412 18.1528C48.4886 20.3939 46.5675 21.7385 43.9163 21.8132C39.7283 21.8879 35.5788 21.8506 31.3908 21.8879C21.5547 21.9253 11.7187 21.9626 1.88268 22.0373C1.34477 22.0373 0.845284 22.0373 0.230532 22.0373C0 20.618 0.115266 19.3107 0.153688 17.854C0.730018 17.854 1.19108 17.854 1.65215 17.854C15.2535 17.8166 28.8165 17.8166 42.4179 17.7793C42.8405 17.7793 43.3016 17.8166 43.7242 17.7419C45.069 17.5552 45.9911 16.6214 45.9911 15.4635C45.9911 14.2682 45.069 13.3345 43.6858 13.2224C43.2632 13.1851 42.8405 13.1851 42.3795 13.2224C28.7781 13.2598 15.2151 13.3345 1.61372 13.3718C1.11424 13.3718 0.57633 13.3718 0 13.3718C0 11.9525 0 10.6452 0 9.26315C0.499486 9.2258 0.96055 9.18845 1.42161 9.18845C15.023 9.1511 28.586 9.1511 42.1874 9.11375C42.4563 9.11375 42.7637 9.11375 43.0326 9.11375C44.8 9.0764 45.4532 8.51612 45.8759 6.76061C45.3764 4.96774 44.9153 4.59422 42.9558 4.59422C31.0066 4.59422 19.0573 4.63157 7.10807 4.66892C5.14855 4.66892 3.18903 4.66892 1.19108 4.66892C0.806862 4.66892 0.461064 4.63157 0 4.59422Z" fill="#181818"/>
<path d="M58.0557 21.5891C58.0557 14.5671 58.0557 7.73175 58.0557 0.784385C58.363 0.747034 58.632 0.672331 58.9009 0.672331C63.5884 0.634979 68.3143 0.560277 73.0018 0.597628C74.2697 0.597628 75.6145 0.747034 76.8056 1.1579C80.1867 2.31579 80.9552 5.26656 80.4173 7.91851C80.1867 9.11376 79.3414 9.97284 78.3425 10.7199C78.4193 10.8319 78.4962 10.9813 78.6114 11.056C80.8399 12.4007 81.3394 14.7165 80.6094 17.3684C79.9562 19.7963 77.8814 21.2903 75.1919 21.4771C73.5013 21.5891 71.8492 21.5518 70.1586 21.5518C66.5469 21.5518 62.9737 21.5891 59.362 21.5891C58.9778 21.5891 58.5936 21.5891 58.0557 21.5891ZM63.3195 16.8829C63.5884 16.9576 63.7037 16.9949 63.8574 16.9949C67.008 16.9949 70.197 16.9949 73.3476 16.9949C73.6934 16.9949 74.0008 16.9576 74.3466 16.8455C75.1535 16.584 75.6529 15.7997 75.5761 15.0153C75.4608 14.0441 74.9229 13.4839 73.9624 13.3718C73.6934 13.3345 73.386 13.3345 73.1171 13.3345C70.1586 13.3345 67.1617 13.3718 64.2032 13.4092C63.9342 13.4092 63.6653 13.4839 63.3963 13.5212C63.3195 14.6418 63.3195 15.6876 63.3195 16.8829ZM63.3195 8.62819C65.2406 8.62819 67.0848 8.62819 68.8907 8.62819C70.4275 8.62819 71.9644 8.66554 73.5013 8.62819C74.5771 8.59084 75.2303 7.91851 75.2303 6.98472C75.2303 6.16299 74.5387 5.41596 73.6166 5.30391C73.386 5.26656 73.1555 5.26656 72.8866 5.26656C70.0049 5.26656 67.1233 5.26656 64.2416 5.26656C63.9342 5.26656 63.6269 5.34126 63.2811 5.37861C63.3195 6.4618 63.3195 7.43294 63.3195 8.62819Z" fill="#181818"/>
<path d="M210.476 0.261455C212.243 0.261455 213.857 0.261455 215.471 0.261455C215.701 1.3073 215.778 19.3854 215.547 21.1409C213.934 21.1409 212.358 21.1409 210.591 21.1409C210.514 19.7589 210.399 18.3769 210.361 17.0323C210.322 15.6876 210.322 14.3429 210.322 12.9609C210.322 11.5789 210.322 10.1969 210.053 8.74023C208.017 11.6536 205.98 14.5671 203.906 17.5178C202.791 17.5178 201.677 17.5178 200.524 17.5178C198.296 14.6418 196.375 11.5789 193.877 8.77758C193.877 12.8489 193.877 16.9576 193.877 21.1783C192.11 21.3277 190.496 21.253 188.767 21.253C188.767 14.2309 188.767 7.35823 188.767 0.373509C189.536 0.0746976 190.419 0.261455 191.265 0.224103C192.11 0.186752 192.994 0.224103 193.954 0.224103C196.644 4.10865 199.372 7.9932 202.023 11.8404C202.177 11.8404 202.215 11.8778 202.253 11.8778C202.292 11.8778 202.369 11.8404 202.369 11.8404C205.02 7.9932 207.748 4.146 210.476 0.261455Z" fill="#79293C"/>
<path d="M104.162 8.59083C104.162 10.1969 104.162 11.5789 104.162 13.1104C101.741 13.2971 99.3593 13.1477 97.0155 13.2224C94.6333 13.2971 92.2128 13.2224 89.7922 13.2224C89.4464 14.4924 89.5616 15.6129 89.6385 16.8455C91.0217 17.107 92.328 16.9576 93.6728 16.9576C94.9791 16.9949 96.2471 16.9576 97.5534 16.9576C98.8982 16.9576 100.243 16.9576 101.588 16.9576C102.856 16.9576 104.162 16.9576 105.545 16.9576C105.545 18.489 105.545 19.9083 105.545 21.4397C98.4371 21.4397 91.3675 21.4397 84.2978 21.4397C84.0673 20.4312 83.9904 2.65195 84.221 0.747025C84.2594 0.709674 84.2978 0.672322 84.3362 0.672322C84.3747 0.634971 84.4131 0.59762 84.4515 0.59762C91.0601 0.560268 97.7071 0.522917 104.316 0.485565C104.7 0.485565 105.084 0.522917 105.545 0.522917C105.699 2.01697 105.622 3.47368 105.66 5.11714C102.932 5.11714 100.32 5.1545 97.6687 5.1545C95.056 5.1545 92.4049 5.1545 89.7153 5.1545C89.7153 6.34974 89.7153 7.39558 89.7153 8.55348C94.4412 8.59083 99.244 8.59083 104.162 8.59083Z" fill="#181818"/>
<path d="M109.195 21.3277C109.195 14.455 109.195 7.58234 109.195 0.597619C110.809 0.37351 112.346 0.560267 113.998 0.485564C118.378 4.66893 122.797 8.85229 127.484 13.2971C127.523 10.9066 127.484 8.85229 127.484 6.79796C127.484 4.74363 127.484 2.6893 127.484 0.485564C129.252 0.448213 130.981 0.485564 132.633 0.485564C132.94 1.5314 132.979 19.9083 132.671 21.365C131.25 21.365 129.828 21.365 128.176 21.365C123.796 17.1817 119.3 12.8862 114.843 8.62818C114.69 8.66553 114.613 8.66553 114.613 8.66553C114.574 8.70288 114.574 8.74023 114.574 8.77758C114.574 12.9236 114.574 17.0696 114.574 21.1783C113.499 21.5518 110.809 21.5891 109.195 21.3277Z" fill="#181818"/>
<path d="M266.725 12.4007C268.262 15.2767 269.761 18.1154 271.336 21.1036C269.223 21.1036 267.302 21.1036 265.304 21.1036C263.997 18.489 262.73 15.9117 261.385 13.2224C258.58 13.0357 255.775 13.2224 252.855 13.1477C252.855 15.8744 252.855 18.4516 252.855 21.0662C251.933 21.253 251.088 21.1409 250.242 21.1783C249.397 21.1783 248.513 21.1783 247.591 21.1783C247.591 14.1562 247.591 7.20883 247.591 0.149408C248.129 0.149408 248.59 0.149408 249.09 0.149408C252.509 0.149408 255.89 0.149408 259.31 0.149408C260.847 0.149408 262.384 0.0747052 263.882 0.186759C266.841 0.410868 268.916 1.86757 269.914 4.63158C270.798 7.13413 269.953 9.74873 267.686 11.6537C267.34 11.9151 267.033 12.1392 266.725 12.4007ZM252.894 4.63158C252.894 6.16299 252.894 7.50764 252.894 8.927C253.431 8.96435 253.893 9.0017 254.354 9.0017C256.62 9.0017 258.849 9.0017 261.116 9.0017C261.731 9.0017 262.345 9.0017 262.999 8.96435C264.036 8.88964 264.881 8.06791 264.996 7.05942C265.112 6.12564 264.535 5.1545 263.613 4.85569C263.191 4.70628 262.691 4.66893 262.23 4.66893C259.694 4.66893 257.158 4.66893 254.623 4.66893C254.085 4.63158 253.547 4.63158 252.894 4.63158Z" fill="#79293C"/>
<path d="M226.19 0.261459C229.802 0.261459 233.298 0.261459 236.795 0.261459C237.41 1.08319 243.98 18.1528 244.825 21.1036C243.941 21.2903 243.058 21.1783 242.174 21.1783C241.329 21.1783 240.445 21.1783 239.523 21.1783C239.062 19.983 238.639 18.8251 238.216 17.6299C233.836 17.6299 229.533 17.6299 225.115 17.6299C224.692 18.7878 224.269 19.983 223.847 21.1409C222.002 21.1409 220.235 21.1409 218.352 21.1409C220.927 14.1188 223.539 7.20883 226.19 0.261459ZM226.575 13.3345C229.956 13.3345 233.26 13.3345 236.641 13.3345C235.604 10.4211 234.643 7.58234 233.644 4.70628C232.261 4.70628 230.955 4.55688 229.61 4.78098C228.611 7.61969 227.612 10.4211 226.575 13.3345Z" fill="#79293C"/>
<path d="M179.661 0.37352C181.429 0.37352 183.043 0.37352 184.656 0.37352C184.964 1.41936 185.04 19.6469 184.733 21.2156C183.081 21.2156 181.429 21.2156 179.661 21.2156C179.661 18.4516 179.661 15.7623 179.661 13.1104C178.432 12.8116 168.673 12.8116 167.251 13.1104C167.251 15.7623 167.251 18.4516 167.251 21.253C165.407 21.253 163.716 21.253 161.91 21.253C161.91 14.343 161.91 7.47029 161.91 0.522926C163.678 0.522926 165.368 0.522926 167.213 0.522926C167.213 3.13753 167.213 5.67743 167.213 8.29203C171.362 8.29203 175.397 8.29203 179.546 8.29203C179.7 5.67743 179.508 3.10018 179.661 0.37352Z" fill="#181818"/>
<path d="M292.583 0C294.62 0 296.541 0 298.654 0C296.31 2.98812 294.082 5.82682 291.777 8.77759C294.159 12.7742 296.541 16.7334 299 20.8048C297.924 21.1409 296.925 20.9542 295.965 20.9915C295.004 21.0289 294.043 20.9915 293.006 20.9915C291.431 18.3396 289.894 15.725 288.357 13.1477C285.322 13.1477 282.402 13.1477 279.328 13.1477C279.328 15.7997 279.328 18.3769 279.328 21.0662C277.56 21.0662 275.947 21.0662 274.371 21.0662C274.102 20.0204 274.026 1.60611 274.295 0.0747029C275.908 0.0747029 277.522 0.0747029 279.251 0.0747029C279.251 2.98812 279.251 5.82683 279.251 8.85229C281.249 8.88964 283.093 8.88964 285.091 8.85229C287.589 5.97623 290.048 3.02547 292.583 0Z" fill="#79293C"/>
<path d="M158.875 7.05942C157.107 7.05942 155.417 7.05942 153.688 7.05942C152.919 5.45331 151.421 5.04244 149.769 4.96774C148.347 4.89304 146.887 4.93039 145.466 4.96774C144.928 4.96774 144.428 5.07979 143.89 5.19185C141.816 5.64006 141.393 6.6859 141.278 8.17996C141.124 10.1969 141.201 12.1766 141.316 14.1935C141.393 15.2394 141.892 15.9491 142.853 16.3599C143.276 16.5467 143.737 16.6961 144.236 16.7708C146.388 17.1443 148.539 17.1817 150.653 16.8081C151.921 16.584 153.035 16.1358 153.611 14.9032C155.455 14.9032 157.184 14.9032 158.952 14.9032C158.491 18.5263 155.955 21.1783 152.343 21.4397C148.847 21.7012 145.35 21.8132 141.854 21.2903C138.588 20.8048 135.937 17.966 135.822 14.7538C135.745 12.3633 135.783 10.0102 135.822 7.61969C135.86 3.84719 138.934 0.896431 142.507 0.59762C145.927 0.298808 149.308 0.261457 152.689 0.59762C156.032 0.85908 158.836 3.84719 158.875 7.05942Z" fill="#181818"/>
</svg>
